<?xml version="1.0" encoding="utf-8"?>
<!-- Generator: Adobe Illustrator 26.3.1, SVG Export Plug-In . SVG Version: 6.00 Build 0)  -->
<svg version="1.1" id="Layer_1" xmlns="http://www.w3.org/2000/svg" xmlns:xlink="http://www.w3.org/1999/xlink" x="0px" y="0px"
	 viewBox="0 0 145.3 150" style="enable-background:new 0 0 145.3 150;" xml:space="preserve">
<style type="text/css">
	.st0{fill:#A2A2A2;}
</style>
<path class="st0" d="M53.9,34.9c0-2.1-1.7-3.7-3.7-3.7h0c-1,0-1.9,0.4-2.6,1.1l-8.3,8.3c-0.7,0.7-1.1,1.6-1.1,2.6v0
	c0,2.1,1.7,3.7,3.7,3.7h5.3c1,0,1.9-0.4,2.6-1.1l3.1-3.1c0.7-0.7,1.1-1.6,1.1-2.6L53.9,34.9L53.9,34.9z M72.7,2.3
	C32.5,2.3,0,34.9,0,75s32.5,72.7,72.7,72.7s72.7-32.5,72.7-72.7S112.8,2.3,72.7,2.3z M86.7,136.6v-10.1c0-7.8-6.3-14.1-14.1-14.1
	h-5.9c-1.1,0-3.8-0.9-4.7-1.6l-6.5-4.9c-1-0.7-1.6-1.9-1.6-3.2v-7c0-1.4,0.7-2.7,1.9-3.4l12.6-7.5c0.6-0.4,1.3-0.6,2-0.6h9.1
	c0.9,0,1.8,0.4,2.6,0.9l15.3,13.1h8.8l5.1,5.1c2.8,2.8,6.5,4.3,10.4,4.3h4.9C117.9,122.2,103.6,132.8,86.7,136.6z M131.4,98.4h-9.6
	c-1.4,0-2.8-0.6-3.8-1.6l-5.1-5.1c-1.8-1.8-4.1-2.8-6.6-2.8h-5.4L88.3,78.2c-2.4-2.1-5.5-3.2-8.7-3.2h-9.1c-2.4,0-4.8,0.6-6.9,1.9
	L51,84.4c-4,2.4-6.5,6.7-6.5,11.4v7c0,4.2,2,8.1,5.3,10.7l6.5,4.9c2.5,1.9,7.2,3.5,10.4,3.5h5.9c2.6,0,4.7,2.1,4.7,4.7V138
	c-1.6,0.1-3.1,0.2-4.7,0.2c-34.9,0-63.3-28.4-63.3-63.3c0-34.8,28.3-63.2,63.1-63.3L68,15c-3,2.3-4.7,5.6-4.7,9.2V31
	c0,1.9,0.9,5,1.7,6.5c-0.2,0.6-6.2,4.4-7.2,5.4c-2.5,2.5-3.9,5.9-3.9,9.4v4.8c0,7.3,6,13.3,13.3,13.3h7.4c3.2,0,6.2-1.1,8.6-3.1
	c1.1,0.4,2.4,0.6,3.7,0.6h3.9c7.5,0,9.4-5.9,10.6-6.3c1.5,2.7,4,4.7,6.9,5.7c-1.3,4.2-0.3,8.9,3,12.2l5.3,5.6c2.5,2.6,6,4.1,9.6,4.1
	h8.1C133.5,92.4,132.6,95.4,131.4,98.4L131.4,98.4z M126.2,79.8c-1.1,0-2.1-0.4-2.8-1.2l-5.4-5.7c-1.1-1.1-1.1-3,0-4.1
	c3.7-3.7,3.1-2.5,3.1-5.2c0-0.7-0.3-1.4-0.8-2l-2.3-2.3c-0.5-0.5-1.2-0.8-2-0.8H112c-2.5,0-3.7-3-2-4.7l2.3-2.1
	c0.5-0.5,1.2-0.8,2-0.8h2.4c1.5,0,2.8-1.2,2.8-2.8v-3c0-1.5-1.2-2.8-2.8-2.8h-8.3c-2.2,0-3.9,1.8-3.9,3.9v1.6c0,1.7-1.1,3.2-2.7,3.7
	l-7.8,2.6c-1.3,0.4-1.3,1.5-1.3,2.4c0,1.1-0.9,2-2,2h-3.9c-1.1,0-2-0.9-2-2c0-2.5-3.7-2.5-4.5-0.9c-2.6,3.6-3.4,5.3-5.8,5.3h-7.4
	c-2.2,0-3.9-1.8-3.9-3.9v-4.8c0-1.1,0.4-2.1,1.1-2.8c5.7-4.1,8.7-5.2,8.7-9.2c0-0.8,0.5-1.6,1.3-1.9l9.8-3.3
	c0.4-0.1,0.8-0.4,1.1-0.7l6.6-6.6c1.5-1.5,1-4.4-2-4.4h-5.1L81,29v2c0,1.1-0.9,2-2,2h-4.4c-1.1,0-2-0.9-2-2v-6.8
	c0-0.6,0.3-1.2,0.8-1.6l12.9-9.3c28.3,6.3,49.6,31.6,49.6,61.8c0,1.6-0.1,3.2-0.2,4.8H126.2z"/>
</svg>
