<?xml version="1.0" encoding="utf-8"?>
<!-- Generator: Adobe Illustrator 26.3.1, SVG Export Plug-In . SVG Version: 6.00 Build 0)  -->
<svg version="1.1" id="Layer_1" xmlns="http://www.w3.org/2000/svg" xmlns:xlink="http://www.w3.org/1999/xlink" x="0px" y="0px"
	 viewBox="0 0 150 171.4" style="enable-background:new 0 0 150 171.4;" xml:space="preserve">
<style type="text/css">
	.st0{fill:#A2A2A2;}
</style>
<path class="st0" d="M106.9,107.3L75,133.9l-31.9-26.6c-6.2,0.3-43.1,5.2-43.1,48c0,8.9,7.2,16.1,16.1,16.1h117.9
	c8.9,0,16.1-7.2,16.1-16.1C150,112.5,113.1,107.6,106.9,107.3z M69.6,160.7H16.1c-2.9,0-5.4-2.4-5.4-5.4c0-33.3,28.2-36.8,28.9-36.9
	l30,25V160.7z M139.3,155.4c0,2.9-2.4,5.4-5.4,5.4H80.4v-17.3l30-25C111.1,118.6,139.3,122,139.3,155.4z M4.4,33.5l2.3,0.7v12.6
	c-2.3,1.4-4,3.9-4,6.8c0,2.8,1.5,5.2,3.7,6.6L1.2,81c-0.6,2.3,0.7,4.7,2.5,4.7h14c1.8,0,3.1-2.4,2.5-4.7L15,60.2
	c2.2-1.4,3.7-3.8,3.7-6.6c0-2.9-1.7-5.4-4-6.8V36.6l15.6,4.6c-2.2,5.5-3.6,11.5-3.6,17.7c0,26.6,21.6,48.2,48.2,48.2
	s48.2-21.6,48.2-48.2c0-6.3-1.3-12.3-3.6-17.7l25.9-7.7c5.9-1.7,5.9-11.7,0-13.4L80.7,0.8C78.8,0.3,76.9,0,75,0s-3.8,0.3-5.7,0.8
	L4.4,20.1C-1.5,21.8-1.5,31.7,4.4,33.5z M75,96.4c-20.7,0-37.5-16.8-37.5-37.5c0-5.3,1.2-10.1,3.2-14.7l28.6,8.5
	c5,1.5,9.1,0.7,11.3,0l28.6-8.5c2,4.5,3.2,9.4,3.2,14.7C112.5,79.6,95.7,96.4,75,96.4L75,96.4z M72.4,11.1c0.3-0.1,2.4-0.8,5.2,0
	l52.9,15.7L77.6,42.5c-0.3,0.1-2.4,0.8-5.2,0L19.5,26.8C19.5,26.8,72.4,11.1,72.4,11.1z"/>
</svg>
