<?xml version="1.0" encoding="utf-8"?>
<!-- Generator: Adobe Illustrator 26.3.1, SVG Export Plug-In . SVG Version: 6.00 Build 0)  -->
<svg version="1.1" id="Layer_1" xmlns="http://www.w3.org/2000/svg" xmlns:xlink="http://www.w3.org/1999/xlink" x="0px" y="0px"
	 viewBox="0 0 150 120" style="enable-background:new 0 0 150 120;" xml:space="preserve">
<style type="text/css">
	.st0{fill:#A2A2A2;}
</style>
<path class="st0" d="M55.9,41.3l19.5-17.9c0.7-0.6,1.6-1,2.5-1h23.7c1,0,1.9,0.4,2.7,1.1l14.2,13.9h29.7c1,0,1.9-0.8,1.9-1.9v-3.8
	c0-1-0.8-1.9-1.9-1.9h-26.6l-12-11.7c-2.1-2.1-4.9-3.3-7.9-3.3H77.9c-2.4,0-4.7,0.9-6.6,2.3c-2-1.5-4.4-2.4-6.9-2.4H48.1
	c-3,0-5.8,1.2-8,3.3L28.5,29.9H1.9c-1,0-1.9,0.8-1.9,1.9v3.7c0,1,0.8,1.9,1.9,1.9h29.7l13.9-13.9c0.7-0.7,1.7-1.1,2.6-1.1h16.3
	c0.2,0.5,0.1,0.2,0.3,0.7L50.8,35.8c-6.6,6.1-6.9,16.2-1,22.7c3.4,3.7,13.7,9.2,22.7,1l5.3-4.9l29.4,23.9c1.6,1.3,1.9,3.7,0.5,5.3
	l-2.2,2.7c-1.3,1.5-3.6,1.9-5.3,0.5l-4.2-3.4l-9.7,12c-1.8,2.2-4.9,2.4-6.9,0.8l-7.2-6.1l-2.4,3c-3.9,4.8-11,5.6-15.6,1.9L33.3,74.9
	H1.9c-1,0-1.9,0.8-1.9,1.9v3.8c0,1,0.8,1.9,1.9,1.9h28.4l19.1,18.3c7,5.6,16.8,5.5,23.7,0l1.7,1.5c2.2,1.8,5,2.8,7.9,2.8
	c3.8,0,7.3-1.6,9.7-4.6l5.1-6.3c3.8,2.1,10.1,2.1,14.1-2.8l2.2-2.7c1.5-1.8,2.3-3.9,2.5-6h31.9c1,0,1.9-0.8,1.9-1.9v-3.8
	c0-1-0.8-1.9-1.9-1.9h-34c-0.6-0.8-1.2-1.6-2.1-2.3L83.5,49.4l6.7-6.1c1.5-1.4,1.6-3.8,0.2-5.3s-3.8-1.6-5.3-0.2L67.5,53.9
	c-3.4,3.1-9,2.8-12.1-0.5C52.2,50,52.4,44.5,55.9,41.3L55.9,41.3z"/>
</svg>
